<?xml version="1.0" encoding="UTF-8"?>
<svg id="Layer_2" data-name="Layer 2" xmlns="http://www.w3.org/2000/svg" viewBox="0 0 1024 735.92">
  <defs>
    <style>
      .cls-1 {
        fill: #fafafa;
      }

      .cls-2 {
        fill: #1095fe;
      }

      .cls-3 {
        fill: #1f2b3a;
      }
    </style>
  </defs>
  <g id="Layer_1-2" data-name="Layer 1">
    <g id="as_a_compund_paths" data-name="as a compund paths">
      <g>
        <path class="cls-3" d="M1023.51,341.22l-1.25-6.24c-1.34-6.66-5.23-12.34-10.95-15.99-5.73-3.65-12.52-4.77-19.12-3.16l-12.13,2.95,4.64-2.05c6.23-2.75,11.09-8.02,13.34-14.45,2.25-6.43,1.73-13.57-1.43-19.61l-2.15-4.1c-6.12-11.7-20.3-16.52-32.28-10.98l-39.46,18.27c-.07.02-.15.04-.22.06-.12.03-5.35,1.55-13.77,4.1l4.32-14.95c3.27-11.33-1.59-23.33-11.83-29.18-6.01-3.44-12.99-4.28-19.65-2.38-6.66,1.91-12.14,6.31-15.42,12.41-.05.1-.11.2-.15.3l-41.79,86.28c-.31.06-.63.14-.94.23l-111.51,32.86c-.24-.57-.5-1.15-.75-1.72,20.78-9.83,38.04-20.94,52.29-33.61,4.14-3.36,40.2-33.66,40.2-71.64v-96.16c0-37.95-36.29-68.21-40.59-71.66-30.99-27.54-74.68-45.49-117.38-57.16-.25-3.11-1.64-9.2-8.08-15.91-17.66-18.4-59.59-27.73-124.63-27.73s-106.98,9.33-124.63,27.73c-6.88,7.16-8,13.63-8.12,16.5-42.05,11.68-84.82,29.48-115.3,56.56-4.38,3.5-40.79,33.74-40.79,71.67v96.16c0,16.99,7.13,34.36,21.19,51.64,4.18,5.14,8.84,10.09,13.85,14.71,2.61,2.41,4.63,4.27,6.48,5.61,17.27,15.29,37.04,27.32,57.97,36.9-.18.42-.36.85-.53,1.27l-122.21-36.01c-.31-.09-.63-.17-.94-.23l1.06,2.18c-.61-.77-1.21-1.54-1.82-2.31.25.03.51.07.76.13l-41.79-86.28c-.05-.1-.1-.2-.15-.3-3.29-6.1-8.76-10.51-15.42-12.41-6.66-1.9-13.64-1.06-19.65,2.38-10.24,5.86-15.1,17.86-11.83,29.18l4.32,14.95c-8.42-2.55-13.65-4.06-13.77-4.1-.07-.02-.15-.04-.22-.06l-39.46-18.27c-11.98-5.55-26.16-.73-32.28,10.98l-2.15,4.1c-3.16,6.04-3.68,13.18-1.43,19.61,2.25,6.43,7.11,11.7,13.34,14.45l4.64,2.05-12.13-2.95c-6.6-1.61-13.39-.48-19.12,3.16-5.73,3.65-9.62,9.33-10.95,15.99l-1.25,6.24c-2.52,12.59,4.85,24.86,17.16,28.53l10.82,3.23c-2.47.89-4.82,2.18-6.93,3.84-5.65,4.44-9.08,11.11-9.41,18.29l-.05,1.04c-.58,12.51,8.3,23.49,20.67,25.52l35.87,5.91c1.34.22,2.68.33,4.01.33.83,0,1.66-.04,2.48-.13.7.72,1.54,1.31,2.49,1.73,1.39.61,21.43,9.23,47.01,9.23,13.92,0,29.48-2.55,44.56-10.35l144.3,73.28c1.31,6.1,2.42,9.8,2.63,10.46l1.68,5.45,27.57,5.31c1.48,16.24,4.15,34.19,8.38,53.97,12.44,58.07,39.3,101.78,79.82,129.91,30.96,21.49,64.33,29.15,85.24,29.15s53.87-7.67,84.45-29.2c39.91-28.09,66.45-71.78,78.9-129.86,4.24-19.77,6.9-37.71,8.37-53.94l27.71-5.33,1.68-5.45c.27-.87,2.15-7.14,3.96-17.24l130.94-66.5c15.07,7.79,30.63,10.35,44.56,10.35,25.57,0,45.62-8.62,47.01-9.23.95-.42,1.79-1.01,2.49-1.73.82.08,1.65.13,2.48.13,1.34,0,2.68-.11,4.01-.33l35.87-5.91c12.36-2.04,21.25-13.01,20.67-25.52l-.05-1.04c-.33-7.18-3.76-13.85-9.41-18.29-2.11-1.66-4.46-2.95-6.93-3.84l10.82-3.23c12.31-3.68,19.68-15.94,17.16-28.53ZM130.64,259.64c2.27-1.3,4.91-1.62,7.43-.9,2.47.71,4.51,2.32,5.76,4.56l21.05,43.47c-2.03-1.26-4.01-2.23-5.95-2.87-9.04-3.02-17.76-5.83-25.54-8.29l-7.21-24.95c-1.24-4.28.6-8.81,4.47-11.03ZM22.18,354.56c-4.41-1.32-7.06-5.72-6.15-10.24l1.25-6.24c.48-2.39,1.88-4.42,3.93-5.73,2.06-1.31,4.49-1.71,6.86-1.14l38.71,9.43c-1.4,7.86-2.23,16.69-2.17,26.59l-42.43-12.67ZM35.33,406.03c-4.43-.73-7.62-4.67-7.41-9.16l.05-1.04c.12-2.61,1.32-4.94,3.37-6.56,2.06-1.61,4.61-2.23,7.17-1.73l28.06,5.45c.85,5.96,1.98,12.2,3.45,18.76l-34.69-5.72ZM74.5,314.95l-28.79-12.71c-2.27-1-3.97-2.84-4.79-5.18-.82-2.34-.64-4.84.51-7.03l2.14-4.1c1.58-3.02,4.65-4.76,7.85-4.76,1.25,0,2.52.27,3.73.82l30.6,14.17c-3.54,4.44-7.63,10.62-11.26,18.81ZM157.78,416.23c-25.19,10.95-52.02,5.65-65.31,1.71-2.01-.59-3.71-1.16-5.05-1.63-.32-1.22-.62-2.44-.91-3.64-2.02-8.33-3.48-16.11-4.46-23.37-.2-1.46-.38-2.91-.54-4.33-.19-1.71-.36-3.38-.5-5.03-.09-1.03-.16-2.05-.23-3.06-.2-3.01-.32-5.92-.36-8.73-.12-8.71.51-16.45,1.63-23.29.46-2.84,1.01-5.52,1.63-8.05.06-.24.12-.48.18-.72.62-2.45,1.29-4.76,2.01-6.93.07-.23.15-.45.23-.68.92-2.71,1.91-5.2,2.94-7.48,3.57-7.95,7.56-13.39,10.53-16.76.63-.72,1.21-1.34,1.73-1.87,1.79.53,4.1,1.22,6.86,2.05,2.48.75,5.32,1.61,8.45,2.57,1.26.39,2.58.79,3.93,1.21,2.85.88,5.88,1.83,9.07,2.83,7.46,2.36,15.74,5.02,24.31,7.89,6.57,2.19,18.02,15.15,26.75,25.84,2.01,2.47,3.88,4.82,5.51,6.88.92,1.17,1.76,2.24,2.51,3.2l-1.29,3.69-17.93,51.26c-3.81,2.59-7.72,4.71-11.68,6.42ZM247.95,423.1c-3.17,4.91-7.22,9.71-12.39,14.13l-50.02-25.4,8.35-23.86,9.77-21.24,55.27,16.29c.05,3.38-.12,7.63-.82,12.38h0c-1.22,8.34-4.04,18.22-10.15,27.7,0,0,0,0,0,0ZM309.47,474.76l-58.84-29.88c19.17-19.1,23.57-42.22,24.11-57.2l41.05,12.1c-7.73,28.11-8.09,54.72-6.32,74.99ZM401.9,40.89c.84-.88,2-1.92,3.55-3.05,10.07-7.35,37.06-18.82,107.36-18.82s94.79,10.36,106.11,18.07c2.9,1.98,4.73,3.78,5.86,5.19-1.92,1.93-4.26,4.44-6.9,7.62-2.58,3.09-5.44,6.79-8.49,11.19-6.47,9.31-13.76,21.69-20.86,37.73-.19.43-.38.87-.58,1.31-5.31,12.15-15.52,21.93-30.35,29.07-27.22,13.1-62.39,13.1-89.6,0-14.83-7.14-25.04-16.92-30.35-29.07-.19-.44-.38-.88-.58-1.31-7-15.81-14.18-28.06-20.58-37.33-3.02-4.38-5.86-8.08-8.43-11.18-2.8-3.39-5.27-6.05-7.28-8.06.5-.63.95-1.19,1.1-1.35ZM281.78,321.12l-3.61-3.22h-.27c-10.18-8.93-28.57-29.22-28.57-49.28v-96.16c0-27.04,31.08-51.72,31.37-51.95l.66-.55c29.47-26.3,73.65-43.1,115.07-53.73,6.1,7.97,13.75,19.72,21.38,36.14.81,1.74,1.61,3.53,2.42,5.37,7.18,16.44,20.48,29.42,39.52,38.59,16.36,7.88,34.71,11.81,53.05,11.81s36.69-3.94,53.05-11.81c19.05-9.17,32.35-22.15,39.53-38.59.81-1.84,1.61-3.63,2.42-5.37,7.78-16.74,15.57-28.63,21.72-36.6,41.89,10.61,86.88,27.5,116.77,54.18l.64.53c.31.24,31.21,25.15,31.21,51.97v96.16c0,27.09-30.6,51.78-30.89,52.01l-.58.49c-18.22,16.26-42.56,29.8-74.4,41.37-13.34,4.85-26.73,9.1-40.13,12.74-58.46,15.88-116.99,20.17-171.32,12.37-17.49-2.51-36.32-5.64-55.41-9.95-2.35-.53-4.7-1.08-7.05-1.65-21.55-5.2-43.27-12.01-63.62-21.26-19.32-8.78-37.41-19.75-52.95-33.62ZM367.25,394.05c-2.54,3.5-8.37,12.62-13.58,28.52h0c-5.64,17.25-10.54,42.48-9.67,77.17h0c.03,1.17.07,2.35.11,3.55l-1.22-.24-10.01-1.93c-.16-.7-.34-1.47-.52-2.3-1.32-6.05-3-15.36-3.93-26.85h0c-1.18-14.59-1.16-32.67,2.34-52.04h0c1.13-6.27,2.62-12.67,4.55-19.12h0c1.28-4.28,2.76-8.59,4.45-12.89.4-1.02.82-2.05,1.24-3.07,8.68,3.35,17.49,6.34,26.34,9.02-.03.06-.07.13-.1.19ZM378.54,571.55c-3.4-15.85-5.72-30.38-7.18-43.65-.95-8.63-1.55-16.74-1.85-24.33h0c-.75-19.17.39-35.08,2.42-48.05,2.03-12.96,4.94-22.97,7.73-30.35,4.03-10.67,7.8-15.83,8.27-16.45.87-.99,1.39-1.91,1.91-3.12.21-.24,1.44-1.48,5.33-2.8.82-.28,1.76-.56,2.84-.84,2.27.52,4.54,1.03,6.8,1.52,6.56,1.42,13.06,2.71,19.48,3.89-3.42,16.86-7.34,42.22-8.63,74.04-1.98,48.85,2.23,121.89,31.11,203.54-28.68-20.68-55.93-56.03-68.22-113.41ZM518.81,710.56c-12.26,0-28.67-2.99-46.08-10.69-35.02-87.03-40.09-165.79-38.09-216.96,1.22-31.19,5.15-56.13,8.45-72.33,4.79.76,9.51,1.47,14.13,2.13,18.83,2.7,38.11,4.05,57.7,4.05,25.41,0,51.31-2.26,77.38-6.74,9.14,44.85,23.37,158.97-29.73,290.46-17.07,7.25-33.04,10.09-43.76,10.09ZM666.4,503.11c-.29,7.73-.89,16-1.86,24.82-1.46,13.26-3.78,27.78-7.17,43.63-11.07,51.64-34.18,90.14-68.7,114.44-.12.08-.23.16-.35.24,29.29-82.17,33.55-155.71,31.56-204.82-1.32-32.44-5.37-58.15-8.82-75.01,6.58-1.39,13.16-2.93,19.75-4.6.93-.24,1.86-.47,2.78-.72,3.15.57,5.53,1.22,7.32,1.84,3.66,1.27,4.85,2.45,5.07,2.69.49,1.15,1.16,2.23,1.97,3.18.12.15,4.41,5.73,8.85,17.98,0,0,0,0,0,0,2.48,6.84,5,15.76,6.87,26.98,0,0,0,0,0,.02,2.19,13.16,3.49,29.49,2.75,49.32ZM706.91,478.63c-.56,5.06-1.25,9.58-1.93,13.42-.65,3.67-1.3,6.73-1.85,9.08l-11.36,2.19c.06-1.56.1-3.1.13-4.62.75-34.97-4.39-60.23-10.16-77.33h0c-2.36-6.99-4.82-12.61-7.04-16.97-2.59-5.11-4.84-8.51-6.18-10.34-.49-.98-1.05-1.92-1.66-2.82,4.7-1.56,9.39-3.19,14.08-4.89,2.56-.93,5.07-1.87,7.54-2.83,1.72-.66,3.41-1.33,5.09-2.01,1.45,3.28,2.78,6.57,3.98,9.86,1.34,3.66,2.53,7.32,3.58,10.97,8.36,28.99,7.97,56.75,5.79,76.31ZM880.18,263.31c1.25-2.24,3.29-3.86,5.76-4.56,2.52-.72,5.16-.4,7.43.9,3.87,2.21,5.7,6.75,4.47,11.03l-7.21,24.95c-7.79,2.45-16.51,5.26-25.54,8.29-1.93.64-3.91,1.61-5.95,2.87l21.05-43.47ZM727.02,468.41c1.21-20.16.07-45.46-7.72-71.92l29.96-8.83c.54,14.98,4.94,38.1,24.11,57.2l-46.35,23.54ZM788.44,437.22c-5.17-4.41-9.22-9.22-12.39-14.13,0,0,0,0,0,0-6.11-9.48-8.94-19.36-10.15-27.69h0c-.69-4.77-.86-9.02-.82-12.39l55.27-16.29,9.77,21.24,8.35,23.86-50.02,25.4ZM943.57,368.15c-.04,2.81-.15,5.72-.36,8.73-.07,1.01-.15,2.03-.23,3.06-.14,1.65-.3,3.32-.5,5.03-.16,1.42-.34,2.86-.54,4.32h0c-.98,7.27-2.44,15.05-4.46,23.37-.29,1.2-.6,2.42-.91,3.64-1.34.47-3.04,1.04-5.05,1.63-13.29,3.93-40.11,9.24-65.31-1.71-3.95-1.71-7.86-3.83-11.68-6.42l-17.93-51.26-1.29-3.69c.75-.96,1.59-2.03,2.51-3.2,1.63-2.07,3.5-4.41,5.51-6.88,8.73-10.69,20.18-23.64,26.75-25.84,8.58-2.87,16.86-5.54,24.31-7.89,3.18-1,6.22-1.95,9.07-2.83,1.35-.42,2.67-.82,3.93-1.21,3.13-.96,5.96-1.82,8.44-2.57h0c2.75-.83,5.07-1.52,6.86-2.05.52.53,1.11,1.15,1.73,1.87,2.97,3.37,6.96,8.81,10.53,16.76,1.02,2.28,2.01,4.77,2.94,7.48.08.22.15.45.23.68.72,2.17,1.4,4.48,2.01,6.93.06.24.12.47.18.72.61,2.53,1.16,5.21,1.63,8.05,1.12,6.84,1.75,14.58,1.63,23.29ZM949.5,314.95c-3.63-8.19-7.72-14.37-11.26-18.81l30.6-14.17c1.21-.56,2.48-.82,3.73-.82,3.2,0,6.27,1.74,7.85,4.76l2.14,4.1c1.15,2.19,1.33,4.69.51,7.03-.82,2.34-2.52,4.18-4.79,5.18l-28.79,12.71ZM996.03,395.84l.05,1.04c.21,4.49-2.98,8.42-7.41,9.16l-34.69,5.72c1.47-6.55,2.6-12.8,3.45-18.76l28.06-5.45c2.56-.49,5.11.12,7.17,1.73,2.06,1.62,3.25,3.95,3.37,6.56ZM1001.82,354.56l-42.43,12.67c.06-9.89-.77-18.73-2.17-26.59l38.71-9.43c2.37-.57,4.8-.17,6.86,1.14,2.06,1.31,3.45,3.34,3.93,5.73l1.25,6.24c.91,4.52-1.74,8.92-6.15,10.24Z"/>
        <path class="cls-3" d="M624.79,42.28c-1.92,1.93-4.26,4.44-6.9,7.62-2.58,3.09-5.44,6.79-8.49,11.19-6.47,9.31-13.76,21.69-20.86,37.73-.19.43-.38.87-.58,1.31-5.31,12.15-15.52,21.93-30.35,29.07-27.22,13.1-62.39,13.1-89.6,0-14.83-7.14-25.04-16.92-30.35-29.07-.19-.44-.38-.88-.58-1.31-7-15.81-14.18-28.06-20.58-37.33-3.02-4.38-5.86-8.08-8.43-11.18-2.8-3.39-5.27-6.05-7.28-8.06.5-.63.95-1.19,1.1-1.35.84-.88,2-1.92,3.55-3.05,10.07-7.35,37.06-18.82,107.36-18.82s94.79,10.36,106.11,18.07c2.9,1.98,4.73,3.78,5.86,5.19Z"/>
        <path class="cls-3" d="M713.2,140.73c-23.43-14.64-52.44-25.14-81.05-32.65-78.17-20.52-160.51-20.52-238.68,0-28.6,7.51-57.61,18-81.04,32.64-6.75,4.21-10.91,11.55-10.91,19.5v120.67c0,7.87,4.04,15.21,10.72,19.39,54.49,34.12,124.3,45.24,187.45,50.28,22.56,1.8,45.43-1.46,67.75-4.67,34.22-4.91,68.42-12.16,100.91-24.13,15.68-5.78,31.04-12.7,45.21-21.61,6.6-4.15,10.54-11.47,10.54-19.26v-120.67c0-7.95-4.16-15.28-10.9-19.49Z"/>
        <path class="cls-3" d="M713.2,140.73c-23.43-14.64-52.44-25.14-81.05-32.65-8.07-2.12-16.19-4.02-24.35-5.7-.81,1.74-1.61,3.52-2.42,5.37-7.18,16.44-20.48,29.42-39.53,38.59-16.36,7.88-34.7,11.81-53.05,11.81s-36.69-3.94-53.05-11.81c-19.04-9.17-32.35-22.15-39.52-38.59-.81-1.84-1.61-3.63-2.42-5.37-8.16,1.68-16.27,3.58-24.35,5.7-28.6,7.51-57.6,18-81.04,32.64-6.75,4.21-10.91,11.55-10.91,19.5v120.67c0,7.88,4.04,15.21,10.72,19.39,54.49,34.12,124.3,45.24,187.45,50.28,22.56,1.8,45.43-1.46,67.75-4.67,34.21-4.91,68.42-12.16,100.91-24.13,15.68-5.77,31.04-12.7,45.21-21.6,6.6-4.15,10.54-11.47,10.54-19.26v-120.67c0-7.95-4.16-15.28-10.9-19.49ZM430.93,232.35c0,12.98-10.53,23.51-23.51,23.51s-23.51-10.52-23.51-23.51v-69.82c0-6.49,2.63-12.37,6.89-16.62,4.25-4.26,10.13-6.89,16.62-6.89,12.98,0,23.51,10.53,23.51,23.51v69.82ZM636.96,232.35c0,12.98-10.53,23.51-23.51,23.51s-23.51-10.52-23.51-23.51v-69.82c0-12.98,10.53-23.51,23.51-23.51,6.49,0,12.37,2.63,16.62,6.89,4.26,4.25,6.89,10.13,6.89,16.62v69.82Z"/>
      </g>
      <g>
        <path class="cls-1" d="M70.02,411.75l-34.69-5.72c-4.43-.73-7.62-4.67-7.41-9.16l.05-1.04c.12-2.61,1.32-4.94,3.37-6.56,2.06-1.61,4.61-2.23,7.17-1.73l28.06,5.45c.85,5.96,1.98,12.2,3.45,18.76Z"/>
        <path class="cls-1" d="M64.61,367.24l-42.43-12.67c-4.41-1.32-7.06-5.72-6.15-10.24l1.25-6.24c.48-2.39,1.88-4.42,3.93-5.73,2.06-1.31,4.49-1.71,6.86-1.14l38.71,9.43c-1.4,7.86-2.23,16.69-2.17,26.59Z"/>
        <path class="cls-1" d="M85.76,296.14c-3.54,4.44-7.63,10.62-11.26,18.81l-28.79-12.71c-2.27-1-3.97-2.84-4.79-5.18-.82-2.34-.64-4.84.51-7.03l2.14-4.1c1.58-3.02,4.65-4.76,7.85-4.76,1.25,0,2.52.27,3.73.82l30.6,14.17Z"/>
        <path class="cls-1" d="M258.11,395.4h0s-10.15,27.7-10.15,27.7c0,0,0,0,0,0-3.17,4.91-7.22,9.71-12.39,14.13l-50.02-25.4,8.35-23.86,9.77-21.24,55.27,16.29c.05,3.38-.12,7.63-.82,12.38Z"/>
        <path class="cls-1" d="M309.47,474.76l-58.84-29.88c19.17-19.1,23.57-42.22,24.11-57.2l41.05,12.1c-7.73,28.11-8.09,54.72-6.32,74.99Z"/>
        <path class="cls-1" d="M164.88,306.77c-2.03-1.26-4.01-2.23-5.95-2.87-9.04-3.02-17.76-5.83-25.54-8.29l-7.21-24.95c-1.24-4.28.6-8.81,4.47-11.03,2.27-1.3,4.91-1.62,7.43-.9,2.47.71,4.51,2.32,5.76,4.56l21.05,43.47Z"/>
        <path class="cls-1" d="M188.68,354.85l-1.29,3.69-17.93,51.26c-3.81,2.59-7.72,4.71-11.68,6.42-25.19,10.95-52.02,5.65-65.31,1.71-2.01-.59-3.71-1.16-5.05-1.63-.32-1.22-.62-2.44-.91-3.64-2.02-8.33-3.48-16.11-4.46-23.37-.2-1.46-.38-2.91-.54-4.33-.19-1.71-.36-3.38-.5-5.03-.09-1.03-.16-2.05-.23-3.06-.2-3.01-.32-5.92-.36-8.73-.12-8.71.51-16.45,1.63-23.29.46-2.84,1.01-5.52,1.63-8.05.06-.24.12-.48.18-.72.62-2.45,1.29-4.76,2.01-6.93.07-.23.15-.45.23-.68.92-2.71,1.91-5.2,2.94-7.48,3.57-7.95,7.56-13.39,10.53-16.76.63-.72,1.21-1.34,1.73-1.87,1.79.53,4.1,1.22,6.86,2.05,2.48.75,5.32,1.61,8.45,2.57,1.26.39,2.58.79,3.93,1.21,2.85.88,5.88,1.83,9.07,2.83,7.46,2.36,15.74,5.02,24.31,7.89,6.57,2.19,18.02,15.15,26.75,25.84,2.01,2.47,3.88,4.82,5.51,6.88.92,1.17,1.76,2.24,2.51,3.2Z"/>
        <path class="cls-1" d="M988.67,406.03l-34.69,5.72c1.47-6.55,2.6-12.8,3.45-18.76l28.06-5.45c2.56-.49,5.11.12,7.17,1.73,2.06,1.62,3.25,3.95,3.37,6.56l.05,1.04c.21,4.49-2.98,8.42-7.41,9.16Z"/>
        <path class="cls-1" d="M1001.82,354.56l-42.43,12.67c.06-9.89-.77-18.73-2.17-26.59l38.71-9.43c2.37-.57,4.8-.17,6.86,1.14,2.06,1.31,3.45,3.34,3.93,5.73l1.25,6.24c.91,4.52-1.74,8.92-6.15,10.24Z"/>
        <path class="cls-1" d="M983.07,297.05c-.82,2.34-2.52,4.18-4.79,5.18l-28.79,12.71c-3.63-8.19-7.72-14.37-11.26-18.81l30.6-14.17c1.21-.56,2.48-.82,3.73-.82,3.2,0,6.27,1.74,7.85,4.76l2.14,4.1c1.15,2.19,1.33,4.69.51,7.03Z"/>
        <path class="cls-1" d="M838.46,411.82l-50.02,25.4c-5.17-4.41-9.22-9.22-12.39-14.13,0,0,0,0,0,0l-10.15-27.69h0c-.69-4.77-.86-9.02-.82-12.39l55.27-16.29,9.77,21.24,8.35,23.86Z"/>
        <path class="cls-1" d="M727.02,468.41c1.21-20.16.07-45.46-7.72-71.92l29.96-8.83c.54,14.98,4.94,38.1,24.11,57.2l-46.35,23.54Z"/>
        <path class="cls-1" d="M897.83,270.67l-7.21,24.95c-7.79,2.45-16.51,5.26-25.54,8.29-1.93.64-3.91,1.61-5.95,2.87l21.05-43.47c1.25-2.24,3.29-3.86,5.76-4.56,2.52-.72,5.16-.4,7.43.9,3.87,2.21,5.7,6.75,4.47,11.03Z"/>
        <path class="cls-1" d="M943.57,368.15c-.04,2.81-.15,5.72-.36,8.73-.07,1.01-.15,2.03-.23,3.06-.14,1.65-.3,3.32-.5,5.03-.16,1.42-.34,2.86-.54,4.32h0c-.98,7.27-2.44,15.05-4.46,23.37-.29,1.2-.6,2.42-.91,3.64-1.34.47-3.04,1.04-5.05,1.63-13.29,3.93-40.11,9.24-65.31-1.71-3.95-1.71-7.86-3.83-11.68-6.42l-17.93-51.26-1.29-3.69c.75-.96,1.59-2.03,2.51-3.2,1.63-2.07,3.5-4.41,5.51-6.88,8.73-10.69,20.18-23.64,26.75-25.84,8.58-2.87,16.86-5.54,24.31-7.89,3.18-1,6.22-1.95,9.07-2.83,1.35-.42,2.67-.82,3.93-1.21,3.13-.96,5.96-1.82,8.44-2.57h0c2.75-.83,5.07-1.52,6.86-2.05.52.53,1.11,1.15,1.73,1.87,2.97,3.37,6.96,8.81,10.53,16.76,1.02,2.28,2.01,4.77,2.94,7.48.08.22.15.45.23.68.72,2.17,1.4,4.48,2.01,6.93.06.24.12.47.18.72.61,2.53,1.16,5.21,1.63,8.05,1.12,6.84,1.75,14.58,1.63,23.29Z"/>
        <path class="cls-1" d="M446.77,684.96c-28.68-20.68-55.93-56.03-68.22-113.41-3.4-15.85-5.72-30.38-7.18-43.65-.95-8.63-1.55-16.74-1.85-24.33h0c-.75-19.17.39-35.08,2.42-48.05l7.73-30.35c4.03-10.67,7.8-15.83,8.27-16.45.87-.99,1.39-1.91,1.91-3.12.21-.24,1.44-1.48,5.33-2.8.82-.28,1.76-.56,2.84-.84,2.27.52,4.54,1.03,6.8,1.52,6.56,1.42,13.06,2.71,19.48,3.89-3.42,16.86-7.34,42.22-8.63,74.04-1.98,48.85,2.23,121.89,31.11,203.54Z"/>
        <path class="cls-1" d="M562.57,700.47c-17.07,7.25-33.04,10.09-43.76,10.09-12.26,0-28.67-2.99-46.08-10.69-35.02-87.03-40.09-165.79-38.09-216.96,1.22-31.19,5.15-56.13,8.45-72.33,4.79.76,9.51,1.47,14.13,2.13,18.83,2.7,38.11,4.05,57.7,4.05,25.41,0,51.31-2.26,77.38-6.74,9.14,44.85,23.37,158.97-29.73,290.46Z"/>
        <path class="cls-1" d="M666.4,503.11c-.29,7.73-.89,16-1.86,24.82-1.46,13.26-3.78,27.78-7.17,43.63-11.07,51.64-34.18,90.14-68.7,114.44-.12.08-.23.16-.35.24,29.29-82.17,33.55-155.71,31.56-204.82-1.32-32.44-5.37-58.15-8.82-75.01,6.58-1.39,13.16-2.93,19.75-4.6.93-.24,1.86-.47,2.78-.72,3.15.57,5.53,1.22,7.32,1.84,3.66,1.27,4.85,2.45,5.07,2.69.49,1.15,1.16,2.23,1.97,3.18.12.15,4.41,5.73,8.85,17.98,0,0,0,0,0,0l6.87,26.98s0,0,0,.02c2.19,13.16,3.49,29.49,2.75,49.32Z"/>
        <path class="cls-1" d="M778.14,172.46v96.16c0,27.09-30.6,51.78-30.89,52.01l-.58.49c-18.22,16.26-42.56,29.8-74.4,41.37-13.34,4.85-26.73,9.1-40.13,12.74-58.46,15.88-116.99,20.17-171.32,12.37-17.49-2.51-36.32-5.64-55.41-9.95-2.35-.53-4.7-1.08-7.05-1.65-21.55-5.2-43.27-12.01-63.62-21.26-19.32-8.78-37.41-19.75-52.95-33.62l-3.61-3.22h-.27c-10.18-8.93-28.57-29.22-28.57-49.28v-96.16c0-27.04,31.08-51.72,31.37-51.95l.66-.55c29.47-26.3,73.65-43.1,115.07-53.73,6.1,7.97,13.75,19.72,21.38,36.14-8.16,1.68-16.27,3.58-24.35,5.7-28.6,7.51-57.6,18-81.04,32.64-6.75,4.21-10.91,11.55-10.91,19.5v120.67c0,7.88,4.04,15.21,10.72,19.39,54.49,34.12,124.3,45.24,187.45,50.28,22.56,1.8,45.43-1.46,67.75-4.67,34.21-4.91,68.42-12.16,100.91-24.13,15.68-5.77,31.04-12.7,45.21-21.6,6.6-4.15,10.54-11.47,10.54-19.26v-120.67c0-7.95-4.16-15.28-10.9-19.49-23.43-14.64-52.44-25.14-81.05-32.65-8.07-2.12-16.19-4.02-24.35-5.7,7.78-16.74,15.57-28.63,21.72-36.6,41.89,10.61,86.88,27.5,116.77,54.18l.64.53c.31.24,31.21,25.15,31.21,51.97Z"/>
      </g>
      <g>
        <path class="cls-2" d="M367.35,393.86c-.03.06-.07.13-.1.19-2.54,3.5-8.37,12.62-13.58,28.52h0c-5.64,17.25-10.54,42.48-9.67,77.17h0c.03,1.17.07,2.35.11,3.55l-1.22-.24-10.01-1.93c-.16-.7-.34-1.47-.52-2.3-1.32-6.05-3-15.36-3.93-26.85h0c-1.18-14.59-1.16-32.67,2.34-52.04h0c1.13-6.27,2.62-12.67,4.55-19.12h0c1.28-4.28,2.76-8.59,4.45-12.89.4-1.02.82-2.05,1.24-3.07,8.68,3.35,17.49,6.34,26.34,9.02Z"/>
        <path class="cls-2" d="M706.91,478.63c-.56,5.06-1.25,9.58-1.93,13.42-.65,3.67-1.3,6.73-1.85,9.08l-11.36,2.19c.06-1.56.1-3.1.13-4.62.75-34.97-4.39-60.23-10.16-77.33h0c-2.36-6.99-4.82-12.61-7.04-16.97-2.59-5.11-4.84-8.51-6.18-10.34-.49-.98-1.05-1.92-1.66-2.82,4.7-1.56,9.39-3.19,14.08-4.89,2.56-.93,5.07-1.87,7.54-2.83,1.72-.66,3.41-1.33,5.09-2.01,1.45,3.28,2.78,6.57,3.98,9.86,1.34,3.66,2.53,7.32,3.58,10.97,8.36,28.99,7.97,56.75,5.79,76.31Z"/>
        <path class="cls-2" d="M624.79,42.28c-1.92,1.93-4.26,4.44-6.9,7.62-2.58,3.09-5.44,6.79-8.49,11.19-6.47,9.31-13.76,21.69-20.86,37.73-.19.43-.38.87-.58,1.31-5.31,12.15-15.52,21.93-30.35,29.07-27.22,13.1-62.39,13.1-89.6,0-14.83-7.14-25.04-16.92-30.35-29.07-.19-.44-.38-.88-.58-1.31-7-15.81-14.18-28.06-20.58-37.33-3.02-4.38-5.86-8.08-8.43-11.18-2.8-3.39-5.27-6.05-7.28-8.06.5-.63.95-1.19,1.1-1.35.84-.88,2-1.92,3.55-3.05,10.07-7.35,37.06-18.82,107.36-18.82s94.79,10.36,106.11,18.07c2.9,1.98,4.73,3.78,5.86,5.19Z"/>
        <path class="cls-2" d="M636.96,162.53v69.82c0,12.98-10.53,23.51-23.51,23.51s-23.51-10.52-23.51-23.51v-69.82c0-12.98,10.53-23.51,23.51-23.51,6.49,0,12.37,2.63,16.62,6.89,4.26,4.25,6.89,10.13,6.89,16.62Z"/>
        <path class="cls-2" d="M430.93,162.53v69.82c0,12.98-10.53,23.51-23.51,23.51s-23.51-10.52-23.51-23.51v-69.82c0-6.49,2.63-12.37,6.89-16.62,4.25-4.26,10.13-6.89,16.62-6.89,12.98,0,23.51,10.53,23.51,23.51Z"/>
        <path class="cls-2" d="M472.71,500.05c23.08,0,46.16,0,69.25,0,2.26,0,4.51.02,6.77-.01.6,0,.96.16,1.27.71,3.44,6.01,6.91,12,10.37,18,.14.25.26.51.45.9h-35.11v69.59h-23.93v-69.54c-.41-.02-.75-.04-1.09-.04-8.32,0-16.64,0-24.95,0-1.01,0-2.02.01-3.03.02v-19.63Z"/>
      </g>
    </g>
  </g>
</svg>